<svg xmlns="http://www.w3.org/2000/svg" xmlns:xlink="http://www.w3.org/1999/xlink" width="1024" zoomAndPan="magnify" viewBox="0 0 768 767.999994" height="1024" preserveAspectRatio="xMidYMid meet" version="1.0"><defs><clipPath id="d7c4ab7863"><path d="M 28.742188 96.015625 L 738.992188 96.015625 L 738.992188 671.894531 L 28.742188 671.894531 Z M 28.742188 96.015625 " clip-rule="nonzero"/></clipPath></defs><g clip-path="url(#d7c4ab7863)"><path fill="#195f79" d="M 130.675781 204.0625 L 253.574219 245.394531 C 263.675781 249.808594 311.714844 267.378906 396.929688 246.242188 C 504.550781 219.59375 737.535156 173.335938 739.910156 172.828125 L 731.167969 129.03125 C 731.082031 129.03125 730.488281 129.199219 729.640625 129.371094 L 507.605469 98.050781 C 483.164062 94.65625 443.78125 95.589844 419.507812 100.34375 L 122.613281 157.890625 C 83.996094 155.9375 47.328125 179.617188 35.019531 218.148438 C 27.890625 240.300781 29.84375 263.984375 40.539062 284.609375 C 46.054688 295.21875 53.4375 304.296875 62.351562 311.769531 C 48.941406 322.207031 38.5 336.550781 32.898438 353.867188 C 25.855469 376.019531 27.808594 399.699219 38.5 420.40625 C 44.273438 431.613281 52.335938 441.03125 61.925781 448.585938 C 48.769531 458.941406 38.417969 473.285156 32.898438 490.34375 C 25.855469 512.582031 27.808594 536.179688 38.5 556.886719 C 49.195312 577.597656 67.273438 592.875 89.425781 600.003906 L 303.480469 668.414062 C 315.195312 672.148438 334.460938 672.996094 346.511719 670.195312 L 722.257812 584.132812 C 722.257812 584.132812 719.964844 574.457031 717.25 562.402344 C 714.53125 550.4375 702.480469 542.882812 690.511719 545.597656 L 348.464844 623.9375 C 336.414062 626.738281 317.148438 625.890625 305.433594 622.15625 L 103.007812 557.480469 C 92.226562 554 83.398438 546.53125 78.136719 536.433594 C 72.960938 526.332031 71.941406 514.789062 75.421875 504.011719 C 82.636719 481.601562 106.570312 469.382812 128.976562 476.425781 C 129.0625 476.171875 252.8125 515.722656 303.480469 531.847656 C 315.195312 535.582031 334.460938 536.433594 346.511719 533.714844 L 722.257812 447.652344 C 722.257812 447.652344 719.964844 437.890625 717.25 425.839844 C 714.53125 413.871094 702.566406 406.320312 690.511719 409.121094 L 348.464844 487.460938 C 336.414062 490.175781 317.148438 489.328125 305.433594 485.59375 L 103.007812 420.917969 C 92.226562 417.4375 83.398438 409.96875 78.136719 399.867188 C 72.960938 389.769531 71.941406 378.226562 75.421875 367.445312 C 82.636719 345.039062 106.570312 332.816406 128.976562 339.863281 C 128.976562 339.777344 254.421875 379.835938 305.519531 396.132812 C 317.316406 399.953125 336.582031 400.71875 348.550781 398 L 724.292969 311.9375 C 724.292969 311.9375 722.085938 302.175781 719.285156 290.125 C 716.570312 278.15625 704.601562 270.601562 692.550781 273.402344 L 350.503906 351.660156 C 338.449219 354.460938 319.269531 353.609375 307.472656 349.875 L 105.128906 285.203125 C 94.265625 281.722656 85.4375 274.253906 80.257812 264.152344 C 74.996094 254.050781 74.0625 242.507812 77.542969 231.730469 C 84.671875 209.40625 108.609375 196.929688 130.675781 204.0625 Z M 130.675781 204.0625 " fill-opacity="1" fill-rule="nonzero"/></g></svg>